<?xml version="1.0" encoding="UTF-8"?>
<!-- Created with Inkscape (http://www.inkscape.org/) -->
<svg width="45.139mm" height="51.214mm" version="1.1" viewBox="0 0 45.139 51.214" xmlns="http://www.w3.org/2000/svg">
 <g transform="translate(-181.16 -76.764)">
  <path d="m220.74 101.63q1e-5 1.8856-.61155 3.5165-.61157 1.5798-1.7328 2.752-1.0702 1.1722-2.6501 1.8347-1.5799.6625-3.5674.6625-1.427 0-2.6501-.45866-1.1722-.50964-2.0895-1.376-.86638-.91735-1.376-2.0895-.50962-1.2231-.50962-2.6501 0-1.8347.61156-3.4145.66253-1.6308 1.8347-2.803 1.1722-1.1722 2.803-1.8347 1.6308-.66253 3.6184-.66253 1.376 0 2.4972.50964 1.1722.45868 1.9876 1.325.86637.86637 1.325 2.0895.50964 1.1722.50964 2.5991zm4.8925-.4077h4e-5q0-2.0895-.71349-3.8732-.71349-1.7837-2.0895-3.1088-1.325-1.325-3.2616-2.0895-1.9366-.76444-4.3319-.76444-1.0193 0-1.9876.25482-.91734.20385-1.6308.61156l-.051-.1529 12.384-14.677h-5.8608l-12.282 15.136q-2.6501 3.2107-3.9242 5.9118-1.2231 2.6501-1.2231 5.3511 0 2.3443.81541 4.3319.86638 1.9366 2.3953 3.3636 1.5289 1.376 3.6184 2.1405 2.0895.76445 4.5357.76445 3.1088 0 5.606-1.0193 2.5482-1.0193 4.2809-2.803 1.7837-1.7837 2.752-4.179.96831-2.3953.96831-5.1982z" style="fill:none;paint-order:markers fill stroke;stroke-width:1.3229;stroke:#ff1c76"/>
  <path d="m196.28 117.2h4.248q1.0658 0 2.0098.33496.94399.31974 1.5987.98967.66993.66994.98967 1.6901.31974 1.0049.1218 2.3752-.19793 1.3855-.86786 2.4057-.66993 1.0049-1.5835 1.6748-.91354.65471-1.9793.98968-1.0506.31974-2.025.31974h-4.0196zm2.0859 9.0441q.89832 0 1.7205-.19793.82218-.21316 1.4769-.63948.65471-.44155 1.0962-1.1267.44155-.70039.57858-1.6901.13703-.97444-.0761-1.6748-.19793-.70038-.68516-1.1267-.47199-.44155-1.1876-.63948-.70039-.21316-1.5835-.21316h-1.751l-1.0201 7.3083z" style="fill:#ff1c76;white-space:pre"/>
  <path d="m207.74 117.2h7.1409l-.24361 1.7357h-5.2224l-.36542 2.6493h4.9484l-.24361 1.7357h-4.9484l-.4111 2.9233h5.4965l-.24361 1.7357h-7.4149z" style="fill:#ff1c76;white-space:pre"/>
  <path d="m215.91 117.2h2.2077l1.7966 8.1458 4.1718-8.1458h2.0707l-5.8619 10.78h-1.6596z" style="fill:#ff1c76;white-space:pre"/>
  <path d="m185.86 90.796-.78393 4.4421h17.925l-21.845 32.558h6.0622l13.767-21.162c-.21527-.88931-.32349-1.8256-.32349-2.8091 0-1.8007.40776-3.5844 1.2232-5.3511.84938-1.8007 2.1576-3.7713 3.9243-5.9118l1.433-1.7663z" style="fill:#ff1c76"/>
 </g>
</svg>